<svg xmlns="http://www.w3.org/2000/svg" viewBox="0 0 24 24" fill="#FF9900">
  <path d="M6.763 10.036c0 .296.032.535.088.71.064.176.144.368.256.576.048.08.064.16.064.224 0 .096-.064.192-.176.288l-.592.384c-.08.056-.16.08-.224.08-.096 0-.192-.048-.288-.128a3.66 3.66 0 01-.352-.448 8.45 8.45 0 01-.304-.512c-.768.904-1.728 1.352-2.896 1.352-0.832 0-1.488-.24-1.984-.704-.496-.464-.736-1.088-.736-1.856 0-.816.288-1.48.88-1.984.592-.512 1.376-.768 2.368-.768.336 0 .688.024 1.056.08.368.056.752.144 1.136.256v-.848c0-.88-.184-1.488-.544-1.840-.368-.352-.992-.528-1.888-.528-.4 0-.816.048-1.232.144-.416.096-.816.224-1.2.4-.176.08-.304.128-.384.144-.08.016-.144.024-.176.024-.144 0-.216-.104-.216-.32v-.504c0-.168.024-.288.064-.368.048-.08.128-.16.256-.24.384-.2.848-.368 1.392-.496C3.104.048 3.696 0 4.336 0c1.36 0 2.368.312 3.016.928.656.616.976 1.552.976 2.816v3.712l.016.016-.016-.016-.048.064c0-.024.016-.04.016-.064v-.48zm-4.032 1.52c.32 0 .656-.056 1.016-.176.36-.12.68-.336.936-.624.144-.176.256-.368.304-.576.048-.208.08-.448.08-.704v-.336a7.737 7.737 0 00-.896-.208 7.621 7.621 0 00-.944-.064c-.672 0-1.168.128-1.488.392-.32.264-.48.632-.48 1.120 0 .464.12.816.368 1.072.248.248.624.376 1.104.376v-.272zm7.792 1.016c-.176 0-.296-.032-.376-.096-.08-.064-.144-.192-.2-.368l-2.256-7.424c-.056-.192-.088-.32-.088-.384 0-.152.076-.24.224-.24h.912c.184 0 .312.032.384.096.08.064.136.192.184.368L10.54 10.28l1.92-6.352c.048-.176.104-.304.184-.368.08-.064.216-.096.392-.096h.744c.184 0 .312.032.392.096.08.064.144.192.184.368l1.944 6.424 2.016-6.424c.048-.176.112-.304.184-.368.08-.064.208-.096.384-.096h.864c.152 0 .232.076.232.24 0 .048-.008.096-.024.152-.016.056-.048.136-.096.256l-2.304 7.424c-.056.176-.12.304-.2.368-.08.064-.2.096-.376.096h-.8c-.184 0-.312-.032-.392-.096-.08-.064-.144-.192-.184-.368l-1.92-6.304-1.888 6.304c-.048.176-.104.304-.184.368-.08.064-.216.096-.392.096h-.8zm12.24.256c-.544 0-1.088-.064-1.632-.184-.544-.12-.968-.256-1.28-.416-.184-.096-.312-.2-.368-.296-.056-.096-.088-.2-.088-.312v-.528c0-.216.08-.32.232-.32.064 0 .128.016.2.040.072.024.184.064.32.112.336.144.696.256 1.088.336.392.08.776.12 1.168.12.616 0 1.096-.112 1.432-.328.344-.216.512-.52.512-.912 0-.272-.088-.504-.256-.704-.168-.2-.48-.384-.928-.544l-1.328-.416c-.672-.216-1.168-.536-1.472-.96-.304-.424-.456-.896-.456-1.424 0-.416.088-.784.272-1.112.184-.328.424-.608.736-.84.312-.232.672-.408 1.088-.528.416-.12.848-.184 1.296-.184.24 0 .488.016.736.056.248.04.48.088.704.152.216.064.416.136.592.216.176.08.312.16.4.24.088.08.152.168.192.264.04.096.064.208.064.336v.496c0 .216-.08.328-.232.328-.088 0-.232-.04-.424-.128-.616-.288-1.312-.432-2.088-.432-.56 0-.992.096-1.296.288-.304.192-.456.48-.456.864 0 .272.096.504.288.704.192.2.544.392 1.056.568l1.296.416c.664.216 1.144.52 1.432.912.288.392.432.84.432 1.344 0 .424-.088.808-.264 1.144-.176.336-.416.624-.72.864-.304.24-.664.424-1.088.552-.424.128-.88.192-1.368.192z"/>
</svg>